<svg width="249" height="249" viewBox="0 0 249 249" fill="none" xmlns="http://www.w3.org/2000/svg"><path opacity=".13" fill-rule="evenodd" clip-rule="evenodd" d="M248.005 124.88C248.005 129.169 247.787 133.407 247.361 137.584V185.874 186.506 187.374 188.006 247.5 249h-1.5-59.334H185.898 185.027 184.398 125.064 124.425 123.564 122.925 63.5918 62.9622 62.0918 61.4622 2.12891.628906v-1.5-59.494V187.374 186.506 185.874 137.435C.213006 133.306.0 129.118.0 124.88.0 120.642.213006 116.453.628906 112.325V64.7541 64.122 63.2541 62.622 3.12818v-1.5H2.12891 61.4622 62.0982 62.9622 63.5982 111.398C115.543 1.21019 119.748.996094 124.002.996094 128.257.996094 132.462 1.21019 136.607 1.62818h47.791H185.027 185.898 186.527 245.86h1.5v1.5V62.622 63.2541H247.361V64.7541 112.176C247.787 116.353 248.005 120.591 248.005 124.88zM245.861 64.7541V101.822C243.37 88.6049 238.779 76.1292 232.447 64.7541H245.861zM245.861 112.254C244.104 95.1277 238.812 79.0478 230.726 64.7541H186.527V124.248h59.334V112.254zM245.86 62.622H231.232C220.451 44.1292 205.015 28.6789 186.527 17.8738V3.12818H245.86V62.622zM229.492 62.622C219.012 44.9387 204.205 30.1178 186.527 19.6151V62.622h42.965zM184.398 3.12818V16.6576C172.94 10.2616 160.361 5.62923 147.03 3.12818H184.398zM184.398 18.379C170.007 10.2161 153.798 4.88053 136.53 3.12818H125.065V62.622h59.333V18.379zM63.5982 3.12818H100.975C87.6405 5.62986 75.0588 10.2639 63.5982 16.6624V3.12818zM111.475 3.12818C94.2028 4.88088 77.9915 10.2182 63.5982 18.3838V62.622H122.932V3.12818H111.475zM61.4622 3.12818V17.8828C42.9815 28.6875 27.5506 44.1344 16.7728 62.622H2.12891V3.12818H61.4622zm0 16.49612C43.7909 30.1264 28.9892 44.9438 18.5131 62.622H61.4622V19.6243zM2.12891 64.7541H15.558C9.21276 76.1523 4.6157 88.6554 2.12891 101.902V64.7541zm0 61.6259V137.358C3.90573 154.887 9.38536 171.323 17.7742 185.874h43.688V126.38H2.12891zm0 59.494V147.858C4.67899 161.441 9.44813 174.243 16.0459 185.874H2.12891zM2.12891 188.006H17.2839C28.0359 206.109 43.2717 221.242 61.4622 231.877V247.5H2.12891V188.006zM63.5918 247.5V233.094C76.5474 240.328 90.9359 245.307 106.225 247.5H63.5918zM63.5918 231.372C81.1273 241.322 101.362 247.073 122.925 247.259V188.006H63.5918V231.372zM184.398 247.5H141.78C157.063 245.308 171.446 240.332 184.398 233.102V247.5zM125.064 247.259C146.628 247.076 166.862 241.327 184.398 231.381V188.006H125.064V247.259zM186.527 247.5V231.886C204.725 221.25 219.966 206.114 230.721 188.006H245.861V247.5H186.527zM186.527 230.144C203.915 219.814 218.526 205.306 228.972 188.006H186.527V230.144zM186.527 185.874H230.23C238.596 171.364 244.068 154.979 245.861 137.506V126.38H186.527v59.494zM245.861 147.938C243.307 161.492 238.544 174.266 231.959 185.874H245.861V147.938zM19.0326 188.006C29.4761 205.301 44.0811 219.806 61.4622 230.135V188.006H19.0326zM17.2785 64.7541C9.16942 79.089 3.87048 95.2204 2.12891 112.402V124.248H61.4622V64.7541H17.2785zm46.3133.0H122.925V68.375H92.6071V68.3751H76.9102V124.248H63.5918V64.7541zM76.9102 126.38H63.5918v59.494H122.925V126.38H96.9639V181.81H76.9102V126.38zM96.9639 124.248H122.925V88.445H96.9639V124.248zM125.064 68.375H153.641 158 173.694V124.248H184.398V64.7541H125.064V68.375zM173.694 126.38H184.398v59.494H125.064V126.38H153.641V181.81H173.694V126.38zM153.641 124.248V88.445H125.064V124.248H153.641z" fill="#fff"/></svg>